<svg width="76" height="90" viewBox="0 0 76 90" fill="none" xmlns="http://www.w3.org/2000/svg">
<path d="M31.176 63.8C32.952 63.8 34.2 63.296 34.92 62.288C35.64 61.28 36 60.152 36 58.904V25.928C36 24.728 35.64 23.624 34.92 22.616C34.2 21.608 32.952 21.104 31.176 21.104H14.328L14.256 68.048C14.256 69.104 13.848 69.944 13.032 70.568C12.216 71.192 11.208 71.504 10.008 71.504C7.176 71.504 5.76 70.352 5.76 68.048V18.152C5.76 16.424 6.192 15.272 7.056 14.696C7.968 14.12 9.048 13.832 10.296 13.832H32.976C34.224 13.832 35.52 14.096 36.864 14.624C38.208 15.152 39.504 15.824 40.752 16.64H40.68C41.928 17.552 42.888 18.752 43.56 20.24C44.232 21.68 44.568 23.36 44.568 25.28V59.48C44.568 63.368 43.272 66.272 40.68 68.192C39.432 69.104 38.136 69.824 36.792 70.352C35.496 70.832 34.224 71.072 32.976 71.072H20.88C20.064 71.072 19.416 70.736 18.936 70.064C18.504 69.392 18.288 68.504 18.288 67.4C18.288 65 19.32 63.8 21.384 63.8H31.176Z" fill="black"/>
<circle cx="24.5" cy="44.5" r="3.5" fill="black"/>
<path d="M50.296 19.244C49.6613 19.244 49.12 19.0293 48.672 18.6C48.2427 18.1707 48.028 17.6387 48.028 17.004C48.028 16.3693 48.2427 15.8373 48.672 15.408C49.12 14.9787 49.6613 14.764 50.296 14.764C50.912 14.764 51.4347 14.9787 51.864 15.408C52.312 15.8373 52.536 16.3693 52.536 17.004C52.536 17.6387 52.312 18.1707 51.864 18.6C51.4347 19.0293 50.912 19.244 50.296 19.244ZM62.224 33.333L62.224 27.929C62.224 27.1637 62 26.6597 61.552 26.417C61.16 26.1557 60.7027 26.025 60.18 26.025L52.116 26.025C51.6307 26.025 51.2573 26.1744 50.996 26.473C50.7533 26.7717 50.632 27.2664 50.632 27.957L50.632 30.841C50.632 31.513 50.1933 31.849 49.316 31.849C48.9427 31.849 48.6253 31.765 48.364 31.597C48.1213 31.4477 48 31.1957 48 30.841L48 27.453C48 26.277 48.2987 25.2317 48.896 24.317C49.456 23.4024 50.52 22.945 52.088 22.945L60.432 22.945C61.1973 22.945 61.86 23.0664 62.42 23.309C62.98 23.5517 63.4373 23.9344 63.792 24.457C64.5013 25.4464 64.856 26.4357 64.856 27.425L64.856 33.333L69.056 33.333C69.952 33.333 70.4 33.8464 70.4 34.873C70.4 35.8997 69.952 36.413 69.056 36.413L49.176 36.413C48.28 36.413 47.832 35.8997 47.832 34.873C47.832 34.481 47.8973 34.1264 48.028 33.809C48.1773 33.4917 48.4947 33.333 48.98 33.333L62.224 33.333ZM52.48 43.1969C52.032 43.1969 51.612 43.3369 51.22 43.6169C50.828 43.9156 50.632 44.4102 50.632 45.1009L50.632 48.6009C50.632 49.2916 50.8 49.7769 51.136 50.0569C51.4907 50.3556 51.892 50.5049 52.34 50.5049L52.648 50.5049C53.5253 50.5049 53.964 51.0182 53.964 52.0449C53.964 53.0716 53.5253 53.5849 52.648 53.5849L52.312 53.5849C51.528 53.5849 50.884 53.4542 50.38 53.1929C49.876 52.9502 49.4373 52.5769 49.064 52.0729C48.3547 51.0836 48 50.0942 48 49.1049L48 44.4009C48 43.4116 48.3547 42.4502 49.064 41.5169C49.4373 41.0689 49.904 40.7236 50.464 40.4809C51.0427 40.2382 51.7053 40.1169 52.452 40.1169L60.432 40.1169C61.944 40.1169 63.064 40.5836 63.792 41.5169C64.128 41.9836 64.3893 42.4596 64.576 42.9449C64.7813 43.4489 64.884 43.9342 64.884 44.4009L64.884 49.1049C64.884 49.5529 64.7907 50.0476 64.604 50.5889C64.436 51.1302 64.2027 51.6342 63.904 52.1009C63.5867 52.5489 63.148 52.9036 62.588 53.1649C62.028 53.4449 61.3653 53.5849 60.6 53.5849L56.82 53.5849C56.3907 53.5849 56.008 53.4542 55.672 53.1929C55.336 52.9502 55.168 52.4929 55.168 51.8209L55.168 45.7729C55.168 45.1009 55.6067 44.7462 56.484 44.7089C57.3613 44.7089 57.8 45.0636 57.8 45.7729L57.8 50.5329L60.404 50.5049C60.8707 50.5049 61.2907 50.3556 61.664 50.0569C62.056 49.7769 62.252 49.2916 62.252 48.6009L62.252 45.1009C62.252 44.4102 62.056 43.9156 61.664 43.6169C61.2907 43.3369 60.8707 43.1969 60.404 43.1969L52.48 43.1969ZM47.832 62.8641C47.832 62.8267 47.8413 62.7801 47.86 62.7241C47.86 62.6681 47.86 62.6121 47.86 62.5561C47.86 62.4627 47.86 62.3321 47.86 62.1641C47.86 61.9961 47.8693 61.8374 47.888 61.6881C47.9067 61.3707 47.9907 61.1001 48.14 60.8761C48.308 60.6521 48.504 60.4934 48.728 60.4001L63.176 55.6961C63.568 55.6027 63.9133 55.6494 64.212 55.8361C64.5293 56.0414 64.7627 56.3587 64.912 56.7881C64.9493 56.9187 64.9773 57.0494 64.996 57.1801C65.0147 57.3107 65.024 57.4227 65.024 57.5161C65.024 58.0947 64.7067 58.4961 64.072 58.7201L57.716 60.7641L51.052 62.9201L64.072 67.1201C64.7253 67.3254 65.052 67.6987 65.052 68.2401C65.052 68.4454 65.0053 68.7067 64.912 69.0241C64.7813 69.5094 64.5573 69.8454 64.24 70.0321C63.9413 70.2187 63.5867 70.2467 63.176 70.1161L48.728 65.4401C48.2053 65.2721 47.9253 64.8334 47.888 64.1241C47.888 64.0867 47.888 64.0401 47.888 63.9841C47.8693 63.9467 47.86 63.9094 47.86 63.8721C47.8413 63.7227 47.832 63.5921 47.832 63.4801C47.832 63.3681 47.832 63.2654 47.832 63.1721L47.832 62.8641Z" fill="black"/>
</svg>
